<svg width="137" height="54" viewBox="0 0 137 54" fill="none" xmlns="http://www.w3.org/2000/svg">
<path d="M0.0480001 23V0.599998H18.544V4.728H4.528V9.72H18.032V13.848H4.528V18.84H18.544V23H0.0480001ZM22.423 7H26.423L26.839 9.048C28.471 7.448 30.807 6.52 33.495 6.52C38.807 6.52 42.807 10.136 42.807 14.968C42.807 19.864 38.839 23.48 33.495 23.48C30.839 23.48 28.535 22.584 26.903 20.984V29.4H22.423V7ZM38.327 14.968C38.327 12.344 35.895 10.456 32.535 10.456C29.175 10.456 26.903 12.312 26.903 14.968C26.903 17.656 29.175 19.512 32.535 19.512C35.959 19.512 38.327 17.592 38.327 14.968ZM49.4423 15.032C49.4423 17.592 51.7143 19.384 54.7543 19.384C57.1863 19.384 58.9783 18.424 59.7143 16.76H64.3543C63.5223 20.824 59.7143 23.48 54.7543 23.48C49.1543 23.48 44.9622 19.864 44.9622 15.032C44.9622 10.136 49.1223 6.52 54.7543 6.52C59.6823 6.52 63.4583 9.112 64.3223 13.208H59.6823C58.9463 11.576 57.1543 10.584 54.7543 10.584C51.6823 10.584 49.4423 12.44 49.4423 15.032ZM0.0480001 53V30.6H4.528V39.72H16.784V30.6H21.264V53H16.784V43.848H4.528V53H0.0480001ZM39.2858 44.456V37H43.7658V53H39.7338L39.3178 50.344C37.9098 52.296 35.7978 53.48 33.3018 53.48C28.5018 53.48 25.1418 49.768 25.1418 44.456V37H29.6218V44.456C29.6218 47.336 31.6378 49.32 34.4858 49.32C37.3018 49.32 39.2858 47.304 39.2858 44.456ZM52.278 45.544V53H47.798V37H51.798L52.246 39.624C53.654 37.704 55.766 36.52 58.262 36.52C63.062 36.52 66.422 40.2 66.422 45.544V53H61.942V45.544C61.942 42.664 59.894 40.648 57.046 40.648C54.198 40.648 52.278 42.664 52.278 45.544ZM77.2063 41.128V45.512C77.2063 48.072 78.7423 49.32 81.8143 49.32V53.48C75.8943 53.48 72.7263 50.536 72.7263 45.512V41.128H69.4622V39.336L75.4143 33.416H77.2063V37H81.8143V41.128H77.2063ZM103.255 46.12H88.7265C89.2065 48.424 91.2545 49.96 93.9425 49.96C95.8625 49.96 97.3985 49.256 98.2305 48.104H102.775C101.559 51.368 98.1345 53.48 93.7505 53.48C88.2465 53.48 84.1185 49.864 84.1185 45.032C84.1185 40.136 88.2145 36.52 93.7505 36.52C99.2225 36.52 103.319 39.944 103.319 45.032C103.319 45.384 103.319 45.768 103.255 46.12ZM88.7265 43.88H98.7105C98.2625 41.608 96.3745 40.136 93.7505 40.136C91.1585 40.136 89.2065 41.64 88.7265 43.88ZM118.424 36.52V41.256C113.656 41.256 110.872 43.976 110.872 48.456V53H106.392V37H110.392L110.872 41.16C112.344 38.312 115 36.52 118.424 36.52ZM136.153 48.456C136.153 51.336 133.113 53.48 128.441 53.48C123.641 53.48 120.377 51.368 120.025 48.04H124.505C124.761 49.448 126.169 50.28 128.441 50.28C130.265 50.28 131.641 49.48 131.641 48.456C131.641 44.936 120.441 48.04 120.441 41.608C120.441 38.792 123.321 36.52 127.993 36.52C132.793 36.52 135.641 38.6 135.897 41.928H131.417C131.225 40.648 130.073 39.752 127.961 39.752C126.201 39.752 124.921 40.52 124.921 41.576C124.921 45 136.153 41.544 136.153 48.456Z" fill="white"/>
</svg>
